<?xml version="1.0" encoding="UTF-8" ?>
<!DOCTYPE svg PUBLIC "-//W3C//DTD SVG 1.1//EN" "http://www.w3.org/Graphics/SVG/1.1/DTD/svg11.dtd">
<svg width="500pt" height="500pt" viewBox="0 0 500 500" version="1.1" xmlns="http://www.w3.org/2000/svg">
<g id="#ffffffff">
</g>
<g id="#181818ff">
<path fill="#181818" opacity="1.00" d=" M 58.87 80.71 C 61.84 78.69 65.57 79.37 68.94 79.27 C 125.97 79.30 183.00 79.26 240.04 79.29 C 244.15 79.28 248.36 82.62 248.06 86.99 C 248.07 133.67 248.09 180.36 248.05 227.05 C 248.27 233.24 238.87 235.18 235.58 230.54 C 234.69 229.22 233.83 227.73 233.97 226.08 C 233.96 181.85 234.01 137.61 233.95 93.38 C 208.98 93.33 184.02 93.35 159.05 93.36 C 158.92 169.39 159.11 245.41 158.96 321.44 C 159.51 321.10 160.07 320.78 160.64 320.48 C 162.95 322.23 166.36 320.48 168.54 322.57 C 170.73 324.40 170.97 327.35 171.09 330.00 C 169.78 332.25 167.95 334.80 165.01 334.64 C 133.03 334.70 101.04 334.61 69.05 334.68 C 69.11 349.03 69.12 363.39 69.11 377.75 C 100.74 377.84 132.38 377.74 164.02 377.84 C 169.65 377.37 171.94 385.04 168.82 388.88 C 167.52 390.75 165.14 391.35 162.98 391.30 C 135.85 391.40 108.72 391.24 81.59 391.36 C 81.59 398.24 81.67 405.12 81.60 412.00 C 81.38 416.87 75.56 419.57 71.37 417.67 C 69.36 416.45 67.30 414.55 67.54 411.97 C 67.39 405.06 67.72 398.13 67.41 391.22 C 62.70 392.26 56.00 390.81 55.74 384.96 C 55.65 285.97 55.75 186.98 55.68 87.99 C 55.54 85.25 56.42 82.22 58.87 80.71 M 69.09 93.45 C 68.97 169.35 69.14 245.26 69.02 321.16 C 94.57 321.20 120.13 321.29 145.68 321.11 C 145.58 245.25 145.78 169.39 145.57 93.53 C 120.08 93.34 94.58 93.51 69.09 93.45 Z" />
<path fill="#181818" opacity="1.00" d=" M 271.40 192.13 C 271.45 187.79 276.04 185.31 279.97 185.65 C 330.29 185.58 380.61 185.67 430.93 185.63 C 433.84 185.67 437.03 185.41 439.57 187.10 C 441.33 188.52 442.16 190.78 442.07 193.01 C 442.16 256.68 442.07 320.35 442.16 384.02 C 442.23 386.19 441.60 388.51 439.77 389.86 C 436.97 392.05 433.22 391.14 429.96 391.34 C 430.00 397.91 430.07 404.48 429.99 411.05 C 429.85 414.71 426.78 418.23 422.98 418.20 C 419.57 418.70 415.68 416.50 415.02 413.02 C 414.73 405.78 415.18 398.53 414.80 391.29 C 405.89 391.17 396.95 391.65 388.06 391.03 C 381.52 389.59 382.24 378.34 388.92 377.79 C 402.17 377.66 415.42 377.72 428.67 377.75 C 428.56 326.55 428.62 275.36 428.62 224.16 C 380.80 224.16 332.98 224.03 285.17 224.23 C 285.27 231.10 285.20 237.98 285.24 244.87 C 312.52 245.09 339.81 244.89 367.09 244.97 C 370.86 244.90 374.67 248.04 374.24 252.06 C 374.38 305.69 374.31 359.33 374.37 412.97 C 374.69 417.39 369.86 419.88 365.99 419.48 C 307.66 419.55 249.32 419.53 190.99 419.49 C 186.80 419.70 182.89 416.35 183.00 412.06 C 182.97 359.03 183.02 306.00 182.98 252.97 C 182.93 251.31 183.55 249.76 183.97 248.19 C 187.39 243.84 193.14 245.08 197.94 244.96 C 222.43 244.91 246.91 245.05 271.40 244.90 C 271.36 227.31 271.35 209.72 271.40 192.13 M 285.25 199.78 C 285.29 203.46 285.29 207.14 285.26 210.82 C 333.00 211.09 380.74 210.91 428.48 210.92 C 428.56 207.21 428.52 203.50 428.54 199.79 C 420.37 199.50 412.19 199.74 404.01 199.66 C 364.42 199.75 324.83 199.51 285.25 199.78 M 196.29 259.20 C 196.03 272.55 196.39 285.91 196.48 299.26 C 251.29 299.31 306.10 299.28 360.91 299.27 C 360.78 285.90 360.93 272.52 360.86 259.15 C 306.01 259.18 251.15 259.08 196.29 259.20 M 196.19 312.76 C 196.57 326.09 196.35 339.43 196.33 352.76 C 251.27 352.96 306.22 352.90 361.15 352.80 C 360.73 339.42 360.97 326.03 360.86 312.64 C 331.58 312.47 302.30 312.61 273.02 312.57 C 247.41 312.69 221.79 312.31 196.19 312.76 M 196.21 366.11 C 196.32 379.49 196.21 392.88 196.21 406.26 C 251.27 406.34 306.34 406.25 361.40 406.30 C 361.53 392.89 361.24 379.47 361.27 366.06 C 306.25 366.08 251.23 365.97 196.21 366.11 Z" />
<path fill="#181818" opacity="1.00" d=" M 127.51 189.74 C 130.88 189.51 134.30 192.52 134.21 195.96 C 134.03 205.31 134.20 214.67 134.22 224.02 C 134.43 226.58 132.40 229.01 129.93 229.53 C 126.01 230.61 121.75 227.03 121.94 223.00 C 121.92 213.99 121.89 204.97 121.94 195.95 C 121.87 192.86 124.49 190.10 127.51 189.74 Z" />
<path fill="#181818" opacity="1.00" d=" M 169.78 195.03 C 170.41 190.81 174.91 189.03 178.73 189.77 C 180.31 191.16 182.28 192.70 182.18 195.06 C 182.26 204.71 182.29 214.38 182.17 224.03 C 182.43 229.49 174.51 231.38 171.33 227.56 C 169.14 224.86 169.72 221.22 169.65 218.01 C 169.78 210.35 169.42 202.68 169.78 195.03 Z" />
<path fill="#181818" opacity="1.00" d=" M 267.82 277.03 C 269.01 275.54 270.05 273.66 271.98 273.03 C 276.01 272.79 280.05 272.95 284.08 272.96 C 287.23 272.84 289.97 275.91 289.85 279.00 C 290.20 282.66 286.50 285.61 282.99 285.10 C 278.80 284.85 274.15 286.01 270.32 283.83 C 267.95 282.40 267.83 279.48 267.82 277.03 Z" />
<path fill="#181818" opacity="1.00" d=" M 267.89 330.19 C 269.41 328.75 270.83 326.75 273.14 326.71 C 276.93 326.45 280.75 326.43 284.55 326.68 C 288.21 327.18 290.86 330.97 289.77 334.59 C 288.48 337.02 285.99 339.22 283.08 339.02 C 279.43 338.99 275.77 339.13 272.13 338.93 C 270.42 338.29 269.20 336.88 267.89 335.68 C 267.81 333.85 267.79 332.02 267.89 330.19 Z" />
<path fill="#181818" opacity="1.00" d=" M 128.72 354.99 C 128.27 351.47 131.70 348.56 135.00 348.53 C 139.33 348.37 143.68 348.21 148.00 348.65 C 151.59 348.94 154.83 352.49 153.80 356.17 C 153.43 358.45 151.23 359.60 149.63 360.95 C 144.65 361.81 139.50 362.28 134.50 361.34 C 131.51 360.84 128.46 358.23 128.72 354.99 Z" />
<path fill="#181818" opacity="1.00" d=" M 267.93 383.10 C 269.16 381.98 270.43 380.92 271.74 379.91 C 276.40 380.02 281.06 379.96 285.72 379.97 C 288.12 381.85 290.92 384.48 289.67 387.88 C 288.57 391.57 284.34 392.45 280.98 392.18 C 277.22 391.86 272.71 393.23 269.65 390.35 C 267.44 388.63 267.54 385.58 267.93 383.10 Z" />
</g>
</svg>
