<?xml version="1.0" encoding="UTF-8" ?>
<!DOCTYPE svg PUBLIC "-//W3C//DTD SVG 1.1//EN" "http://www.w3.org/Graphics/SVG/1.1/DTD/svg11.dtd">
<svg width="300pt" height="300pt" viewBox="0 0 300 300" version="1.1" xmlns="http://www.w3.org/2000/svg">
<g id="#181818ff">
<path fill="#181818" opacity="1.00" d=" M 191.88 58.03 C 192.04 54.99 195.11 53.08 197.96 53.34 C 211.65 53.30 225.34 53.32 239.03 53.33 C 241.77 53.07 244.79 54.60 245.41 57.43 C 245.81 61.58 245.66 65.78 245.54 69.95 C 245.63 72.79 242.99 74.42 241.07 76.03 C 241.80 81.92 244.21 87.48 247.76 92.22 C 253.69 100.22 258.06 109.85 257.78 119.99 C 257.57 142.00 258.01 164.00 258.11 186.01 C 258.24 191.33 257.62 197.51 253.01 200.96 C 248.79 204.52 243.00 203.61 237.91 203.80 C 237.67 211.86 238.10 219.92 237.74 227.97 C 237.51 232.35 233.88 236.18 229.51 236.60 C 224.05 237.31 218.55 237.85 213.05 237.90 C 208.52 238.17 209.44 231.42 205.58 230.43 C 203.30 229.84 200.61 230.05 198.86 231.78 C 197.79 234.51 198.56 239.06 194.68 239.61 C 171.81 242.14 148.84 244.07 125.93 246.44 C 123.54 246.59 120.81 246.91 118.83 245.24 C 116.86 243.84 116.95 241.20 116.82 239.05 C 116.81 235.09 116.51 231.09 117.03 227.15 C 117.59 224.16 121.19 224.19 123.45 223.26 C 126.79 222.24 127.36 217.37 124.89 215.15 C 122.54 214.17 119.38 214.55 117.77 212.25 C 117.04 209.59 117.34 206.79 117.20 204.06 C 109.99 206.73 102.64 209.00 95.27 211.15 C 86.60 213.82 77.11 215.89 68.27 212.74 C 56.74 208.78 48.92 198.16 45.01 187.01 C 38.08 168.12 41.03 145.00 55.07 130.06 C 61.87 122.67 71.64 119.32 81.08 116.83 C 98.10 111.86 115.10 106.80 132.23 102.23 C 142.98 99.32 155.11 100.19 164.53 106.50 C 171.14 110.48 175.62 116.87 179.67 123.26 C 180.09 116.55 180.83 109.72 183.68 103.54 C 187.52 94.21 196.20 86.89 196.75 76.31 C 195.48 74.26 192.41 73.54 192.01 70.90 C 191.46 66.64 191.62 62.30 191.88 58.03 M 200.20 61.86 C 200.24 63.62 200.24 65.39 200.20 67.16 C 212.56 67.73 224.96 67.37 237.34 67.33 C 237.33 65.45 237.33 63.56 237.33 61.68 C 224.96 61.66 212.56 61.30 200.20 61.86 M 205.35 75.97 C 204.82 80.43 203.98 84.92 201.96 88.97 C 199.24 95.00 194.63 99.92 191.86 105.92 C 189.53 110.94 188.39 116.48 188.49 122.01 C 188.56 129.40 188.39 136.79 188.59 144.19 C 193.98 144.33 199.39 144.03 204.78 144.38 C 214.20 145.19 223.71 148.75 230.41 155.60 C 234.62 159.98 237.85 165.73 237.87 171.94 C 237.99 179.71 237.75 187.48 237.97 195.25 C 241.72 195.14 247.31 196.70 249.21 192.30 C 250.77 183.64 249.85 174.76 250.09 166.00 C 249.89 154.45 250.49 142.88 249.82 131.36 C 235.55 131.17 221.27 131.32 207.00 131.29 C 203.73 131.20 200.41 131.60 197.19 130.94 C 193.65 129.46 194.81 122.67 199.04 123.29 C 215.82 123.18 232.61 123.38 249.39 123.21 C 249.59 117.78 248.89 112.28 246.74 107.26 C 244.11 100.63 238.94 95.46 236.00 88.99 C 233.98 84.93 233.08 80.43 232.59 75.96 C 223.52 75.59 214.41 75.57 205.35 75.97 M 126.49 112.62 C 113.86 115.84 101.48 119.95 88.90 123.34 C 92.29 126.23 96.37 128.28 99.32 131.68 C 109.20 142.43 113.20 157.63 112.47 171.98 C 111.98 181.70 108.57 190.92 103.97 199.40 C 108.45 197.91 112.90 196.35 117.46 195.12 C 117.98 188.88 115.44 181.31 120.19 176.21 C 128.13 167.48 136.75 159.41 144.64 150.64 C 147.22 147.85 150.10 144.65 154.18 144.44 C 161.21 144.06 168.27 144.49 175.31 144.23 C 176.21 130.25 167.65 115.59 154.16 110.95 C 145.11 107.86 135.35 109.82 126.49 112.62 M 71.33 129.29 C 65.46 131.01 60.68 135.36 57.41 140.40 C 49.75 152.34 48.08 167.59 52.00 181.12 C 54.41 189.25 58.84 197.15 65.84 202.17 C 71.74 206.53 80.08 206.86 86.54 203.57 C 92.43 200.71 96.77 195.38 99.58 189.58 C 105.14 177.31 105.76 162.80 100.86 150.22 C 98.22 143.47 94.21 136.94 88.05 132.89 C 83.27 129.53 77.09 127.63 71.33 129.29 M 150.38 156.39 C 144.93 162.48 138.68 167.86 133.60 174.28 C 157.45 169.92 181.08 164.43 204.94 160.17 C 209.79 159.26 214.81 159.41 219.57 158.03 C 213.19 153.99 205.46 152.59 198.01 152.74 C 183.99 152.81 169.97 152.71 155.96 152.77 C 153.42 152.45 152.00 154.90 150.38 156.39 M 193.71 170.63 C 176.32 173.67 159.16 177.87 141.77 180.93 C 136.46 181.88 131.24 183.22 125.93 184.15 C 125.49 191.68 125.59 199.23 125.80 206.77 C 129.20 208.29 132.79 210.39 134.04 214.16 C 136.39 220.04 133.40 226.95 127.93 229.89 C 124.49 231.18 125.75 235.16 125.75 237.98 C 147.10 236.15 168.43 234.04 189.73 231.71 C 190.49 228.01 191.41 224.00 194.44 221.45 C 198.63 217.32 205.82 216.99 210.44 220.58 C 213.45 222.60 214.82 226.10 216.10 229.33 C 220.58 229.00 225.07 228.69 229.56 228.42 C 229.52 212.28 229.54 196.14 229.54 180.00 C 229.49 175.36 230.14 170.43 227.75 166.20 C 216.30 166.65 204.90 168.18 193.71 170.63 Z" />
<path fill="#181818" opacity="1.00" d=" M 67.44 142.40 C 70.97 141.08 75.32 144.19 74.88 148.01 C 75.25 152.06 70.32 155.23 66.77 153.20 C 62.18 151.30 62.93 143.90 67.44 142.40 Z" />
<path fill="#181818" opacity="1.00" d=" M 83.50 147.47 C 86.97 145.13 91.91 149.00 91.05 152.95 C 90.56 156.58 85.68 158.59 82.88 156.11 C 79.89 154.06 80.59 149.24 83.50 147.47 Z" />
<path fill="#181818" opacity="1.00" d=" M 61.31 167.17 C 64.92 165.03 70.36 167.58 69.95 172.05 C 70.46 176.67 64.45 180.31 60.79 177.19 C 57.17 175.02 57.36 168.86 61.31 167.17 Z" />
<path fill="#181818" opacity="1.00" d=" M 84.34 171.31 C 87.52 170.74 90.94 173.09 91.63 176.23 C 92.70 181.17 85.75 185.69 81.90 182.11 C 78.05 179.28 79.66 172.25 84.34 171.31 Z" />
<path fill="#181818" opacity="1.00" d=" M 206.36 179.39 C 211.84 177.32 218.24 182.13 217.60 188.00 C 217.95 194.44 210.00 198.80 204.67 195.30 C 198.43 191.92 199.49 181.37 206.36 179.39 Z" />
<path fill="#181818" opacity="1.00" d=" M 152.33 188.24 C 159.66 185.42 168.23 192.30 167.62 200.01 C 167.73 207.26 159.96 212.99 153.06 211.01 C 146.81 209.62 142.76 202.52 144.59 196.41 C 145.65 192.66 148.61 189.47 152.33 188.24 Z" />
<path fill="#181818" opacity="1.00" d=" M 74.38 191.12 C 77.22 188.99 81.83 192.48 80.12 195.78 C 79.47 198.10 76.40 198.93 74.51 197.58 C 72.15 196.37 72.07 192.44 74.38 191.12 Z" />
<path fill="#181818" opacity="1.00" d=" M 183.36 197.40 C 187.86 195.81 193.18 199.10 193.12 204.02 C 193.88 209.59 187.01 213.84 182.35 210.79 C 176.94 208.16 177.61 199.16 183.36 197.40 Z" />
</g>
</svg>
