<?xml version="1.0" encoding="UTF-8" ?>
<!DOCTYPE svg PUBLIC "-//W3C//DTD SVG 1.1//EN" "http://www.w3.org/Graphics/SVG/1.1/DTD/svg11.dtd">
<svg width="300pt" height="300pt" viewBox="0 0 300 300" version="1.1" xmlns="http://www.w3.org/2000/svg">
<g id="#181818ff">
<path fill="#181818" opacity="1.00" d=" M 0.00 0.00 L 0.06 0.00 C 0.05 0.01 0.02 0.04 0.00 0.06 L 0.00 0.00 Z" />
<path fill="#181818" opacity="1.00" d=" M 169.68 69.92 C 169.70 56.85 180.67 44.44 194.01 44.25 C 206.70 43.64 218.05 54.19 219.57 66.58 C 222.09 66.76 225.01 67.12 226.53 69.44 C 229.14 73.51 228.20 78.60 228.56 83.17 C 232.52 82.96 236.57 82.59 240.47 83.54 C 245.91 85.02 250.16 90.25 250.17 95.95 C 250.20 142.97 250.16 189.99 250.19 237.01 C 250.11 240.41 250.63 243.98 249.28 247.21 C 247.39 252.16 242.35 255.80 237.01 255.81 C 222.70 256.23 208.36 256.19 194.05 255.77 C 187.09 255.52 181.58 248.96 181.77 242.13 C 181.59 194.07 181.78 146.00 181.71 97.94 C 181.41 93.11 183.55 88.28 187.56 85.50 C 191.74 82.28 197.24 82.99 202.17 82.77 C 202.32 78.31 201.47 73.20 204.36 69.39 C 205.76 67.30 208.36 66.94 210.62 66.46 C 209.00 61.62 206.05 56.90 201.19 54.82 C 194.15 51.34 185.08 54.62 181.28 61.32 C 179.55 64.22 178.64 67.59 178.62 70.97 C 178.60 99.24 178.65 127.53 178.60 155.80 C 178.39 158.69 175.27 159.60 172.98 160.36 C 171.26 159.45 169.12 158.38 169.68 156.01 C 169.69 127.32 169.66 98.62 169.68 69.92 M 210.93 74.82 C 210.75 77.58 210.70 80.34 210.76 83.10 C 213.89 83.14 217.03 83.11 220.16 82.92 C 220.06 80.38 220.52 77.70 219.63 75.26 C 216.86 74.33 213.81 74.98 210.93 74.82 M 194.26 91.28 C 192.12 91.78 190.25 93.73 190.51 96.04 C 190.56 116.03 190.50 136.02 190.54 156.01 C 189.39 177.31 190.14 198.66 189.93 219.99 C 190.01 227.62 189.72 235.25 190.18 242.87 C 190.12 245.49 192.46 247.74 195.07 247.59 C 208.38 247.66 221.69 247.58 235.01 247.63 C 238.43 248.25 241.79 245.40 241.51 241.88 C 241.56 195.58 241.52 149.27 241.53 102.96 C 241.48 100.16 241.74 97.33 241.38 94.54 C 240.47 91.96 237.52 90.85 234.97 91.12 C 221.40 91.27 207.82 90.94 194.26 91.28 Z" />
<path fill="#181818" opacity="1.00" d=" M 64.38 72.37 C 75.36 61.52 92.12 57.19 107.05 60.89 C 120.28 63.84 131.74 73.10 137.86 85.14 C 146.18 101.19 144.33 122.41 132.10 136.01 C 126.73 141.77 122.12 148.87 121.74 156.96 C 121.57 164.97 121.83 172.98 121.67 180.98 C 121.32 187.35 116.23 192.65 110.31 194.50 C 109.05 200.77 103.61 206.23 97.02 206.35 C 90.31 206.65 84.19 201.37 82.99 194.85 C 79.41 193.44 75.79 191.57 73.70 188.20 C 70.02 182.87 71.05 176.12 70.92 170.03 C 70.72 163.68 72.16 157.15 70.10 150.97 C 68.50 145.26 64.73 140.56 60.80 136.25 C 44.87 118.44 46.75 88.37 64.38 72.37 M 69.89 78.79 C 57.51 90.53 54.96 110.86 63.50 125.52 C 66.14 130.05 70.13 133.58 73.03 137.93 C 76.71 143.22 79.02 149.41 79.81 155.81 C 83.14 155.80 86.47 155.80 89.80 155.83 C 88.78 144.85 87.43 133.88 87.23 122.85 C 84.02 120.04 79.42 117.47 79.09 112.75 C 78.62 108.18 84.63 105.13 88.26 107.61 C 90.48 109.60 90.87 112.73 91.61 115.46 C 94.76 116.35 98.14 116.65 101.20 115.27 C 102.08 112.65 102.45 109.53 104.69 107.66 C 107.50 105.94 111.56 107.00 113.38 109.70 C 114.29 113.14 112.98 117.05 110.19 119.27 C 108.89 120.61 106.85 121.37 106.00 123.06 C 105.53 134.00 104.84 144.95 103.44 155.82 C 106.63 155.82 109.83 155.82 113.02 155.78 C 113.97 146.40 118.90 137.99 125.18 131.17 C 133.27 122.20 136.06 109.18 133.33 97.53 C 130.34 84.56 120.11 73.60 107.34 69.83 C 94.47 65.94 79.48 69.23 69.89 78.79 M 95.23 124.63 C 95.46 131.64 95.51 138.75 96.80 145.65 C 97.84 138.76 97.80 131.67 97.77 124.69 C 97.13 124.67 95.87 124.64 95.23 124.63 M 79.66 164.25 C 79.68 166.41 79.70 168.57 79.72 170.74 C 90.91 170.76 102.09 170.69 113.28 170.78 C 113.25 168.60 113.24 166.42 113.24 164.25 C 102.05 164.28 90.85 164.29 79.66 164.25 M 79.13 179.45 C 79.92 181.34 80.17 183.75 81.97 185.04 C 84.25 186.84 87.32 186.33 90.02 186.43 C 96.01 186.24 102.04 186.69 108.02 186.20 C 111.26 185.59 112.68 182.40 113.56 179.58 C 102.10 179.03 90.59 179.29 79.13 179.45 M 91.13 194.67 C 92.28 196.39 93.91 197.85 95.99 198.28 C 98.45 198.38 100.66 196.70 101.88 194.67 C 98.30 194.60 94.71 194.60 91.13 194.67 Z" />
<path fill="#181818" opacity="1.00" d=" M 213.06 99.78 C 224.31 98.28 235.56 107.64 235.89 119.02 C 236.62 127.01 232.04 135.21 224.80 138.70 C 220.68 140.84 215.85 141.15 211.32 140.50 C 202.01 138.61 194.99 129.41 195.40 119.95 C 195.37 110.10 203.35 101.16 213.06 99.78 M 204.44 116.50 C 207.66 116.42 211.54 115.42 213.84 118.37 C 213.55 120.37 214.39 123.06 212.44 124.41 C 210.16 125.75 207.36 125.08 204.84 125.36 C 207.24 128.76 210.50 132.12 214.95 132.24 C 219.90 132.76 224.02 129.31 226.49 125.35 C 224.38 125.25 222.27 125.31 220.18 125.07 C 217.31 124.13 217.04 120.57 217.93 118.15 C 219.91 115.13 224.01 116.69 226.97 116.47 C 225.03 112.16 220.92 108.46 215.95 108.72 C 210.78 108.26 206.44 112.01 204.44 116.50 Z" />
<path fill="#181818" opacity="1.00" d=" M 210.50 150.66 C 215.92 149.49 221.94 150.19 226.61 153.32 C 233.08 157.42 236.82 165.32 235.83 172.93 C 234.97 184.48 222.80 193.27 211.56 190.87 C 202.53 188.87 195.29 180.29 195.41 170.96 C 195.02 161.79 201.71 153.03 210.50 150.66 M 204.31 166.56 C 207.35 167.01 211.69 165.23 213.58 168.41 C 213.84 170.29 214.22 172.55 212.95 174.17 C 210.76 176.08 207.63 174.99 205.00 175.27 C 207.21 179.65 211.97 183.01 217.03 182.29 C 221.18 181.84 224.35 178.80 226.53 175.47 C 223.59 174.91 219.23 176.40 217.73 172.94 C 217.33 170.74 217.10 167.38 219.86 166.68 C 222.29 166.46 224.73 166.56 227.16 166.50 C 224.83 162.43 220.96 158.69 215.95 158.81 C 210.79 158.48 206.58 162.26 204.31 166.56 Z" />
<path fill="#181818" opacity="1.00" d=" M 136.36 166.89 C 136.44 163.04 136.42 158.15 140.19 155.92 C 144.75 155.64 149.36 155.63 153.93 155.93 C 158.30 157.56 157.50 163.06 158.28 166.77 C 162.20 166.07 167.49 166.77 168.63 171.29 C 169.21 180.50 169.17 189.76 168.88 198.99 C 168.71 206.33 169.27 213.66 169.07 221.00 C 168.59 229.88 169.59 238.80 168.67 247.67 C 167.76 250.90 164.51 253.35 161.12 253.24 C 155.04 253.33 148.97 253.21 142.90 253.23 C 140.23 253.04 138.29 255.40 135.72 255.68 C 131.48 256.12 127.31 254.94 123.12 254.46 C 105.36 252.22 87.65 249.58 69.92 247.15 C 65.88 246.71 61.99 244.60 59.88 241.06 C 56.36 235.26 56.31 228.06 57.53 221.58 C 58.51 216.75 60.90 211.73 65.45 209.35 C 68.34 207.67 71.83 208.10 75.01 208.29 C 91.92 210.26 108.66 213.52 125.61 215.10 C 125.58 201.73 125.63 188.36 125.57 175.00 C 125.61 172.74 125.48 170.09 127.33 168.45 C 129.67 165.99 133.33 166.54 136.36 166.89 M 144.42 164.74 C 144.70 165.20 145.26 166.13 145.54 166.59 C 146.79 166.66 148.04 166.74 149.29 166.84 C 149.27 165.96 149.26 165.08 149.26 164.20 C 147.63 164.23 146.00 164.33 144.42 164.74 M 133.90 175.36 C 133.98 188.69 133.80 202.02 133.99 215.35 C 136.76 215.89 139.97 215.83 142.05 218.03 C 144.82 220.66 144.89 224.72 145.91 228.16 C 147.40 229.67 149.70 230.31 150.85 232.19 C 153.40 236.05 152.85 241.29 150.15 244.92 C 153.65 244.80 157.15 244.82 160.65 244.84 C 160.60 221.65 160.58 198.46 160.64 175.26 C 151.73 175.33 142.81 175.15 133.90 175.36 M 66.68 236.25 C 67.99 239.38 71.98 238.47 74.64 239.30 C 72.81 231.85 73.43 224.06 76.10 216.90 C 74.02 216.69 71.95 216.50 69.88 216.32 C 65.83 221.91 63.41 229.76 66.68 236.25 M 84.00 218.03 C 80.56 224.91 79.60 233.13 82.78 240.30 C 96.38 242.01 109.92 244.18 123.55 245.67 C 122.88 241.78 121.89 237.82 122.71 233.88 C 123.13 230.35 124.81 227.19 126.01 223.90 C 112.10 221.44 98.00 219.99 84.00 218.03 M 131.54 244.40 C 132.04 246.14 133.98 246.25 135.47 246.42 C 132.75 241.70 132.05 235.25 136.41 231.25 C 138.66 229.35 136.09 227.12 134.81 225.58 C 130.52 230.65 129.11 238.20 131.54 244.40 M 140.89 240.11 C 142.91 241.43 143.99 239.41 145.16 238.09 C 144.48 237.36 143.79 236.64 143.11 235.93 C 141.89 237.09 140.01 238.12 140.89 240.11 Z" />
<path fill="#181818" opacity="1.00" d=" M 144.50 186.38 C 144.34 183.66 144.67 179.62 148.05 179.25 C 151.74 179.05 151.96 183.54 151.92 186.20 C 154.23 186.55 157.91 186.96 157.68 190.14 C 157.46 193.04 154.29 194.01 151.84 193.89 C 152.08 196.69 151.80 201.09 147.93 200.91 C 144.64 200.31 144.36 196.58 144.50 193.91 C 142.17 193.92 138.90 192.83 139.08 189.97 C 138.85 187.01 142.26 186.47 144.50 186.38 Z" />
<path fill="#181818" opacity="1.00" d=" M 211.58 200.72 C 222.99 198.13 234.94 207.53 235.81 219.04 C 236.84 226.88 232.85 235.11 225.99 239.06 C 221.65 241.77 216.28 242.32 211.31 241.53 C 202.04 239.52 194.94 230.35 195.42 220.87 C 195.40 211.50 202.49 202.80 211.58 200.72 M 204.68 216.73 C 207.27 216.94 209.99 216.60 212.46 217.50 C 214.37 218.71 213.74 221.24 213.68 223.13 C 212.04 226.78 207.45 224.90 204.33 225.57 C 206.84 229.23 210.25 232.99 215.07 233.01 C 220.38 233.59 224.39 229.56 227.10 225.51 C 224.70 225.41 222.30 225.49 219.91 225.27 C 217.24 224.43 217.33 221.25 217.70 219.00 C 219.43 215.68 223.66 217.12 226.65 216.87 C 224.54 212.85 220.79 209.20 215.97 209.29 C 210.96 208.97 207.02 212.69 204.68 216.73 Z" />
<path fill="#181818" opacity="1.00" d=" M 114.48 229.40 C 116.18 228.92 119.40 230.34 118.47 232.51 C 117.36 234.99 118.67 238.14 116.82 240.27 C 114.51 241.36 112.18 239.31 111.57 237.15 C 111.19 234.32 111.87 230.99 114.48 229.40 Z" />
</g>
</svg>
