<?xml version="1.0" encoding="UTF-8"?>
<svg id="_Слой_2" data-name="Слой 2" xmlns="http://www.w3.org/2000/svg" viewBox="0 0 331.31 477.76">
  <defs>
    <style>
      .cls-1 {
        fill: #f2c56d;
        fill-rule: evenodd;
      }
    </style>
  </defs>
  <g id="_Слой_1-2" data-name="Слой 1">
    <g>
      <polygon class="cls-1" points="87.91 47.3 150.17 80.77 150.17 151.51 87.91 117.96 .03 70.74 .03 0 87.91 47.3"/>
      <polygon class="cls-1" points="331.27 .08 331.27 70.83 243.47 117.96 212.34 134.7 181.22 151.51 181.22 80.77 331.27 .08"/>
      <polygon class="cls-1" points="212.38 243.48 212.38 281.52 222.32 276.19 243.5 264.81 331.31 217.62 331.31 288.29 243.5 335.48 222.32 346.86 212.38 352.26 212.38 460.97 181.25 477.76 181.25 189.52 201.79 178.5 212.38 172.74 243.5 156.03 331.31 108.84 331.31 179.58 243.5 226.7 212.38 243.48"/>
      <polygon class="cls-1" points="331.31 326.4 331.31 397.07 243.5 444.26 243.5 373.52 331.31 326.4"/>
      <polygon class="cls-1" points="150.13 189.52 150.13 477.69 119.01 460.97 119.01 352.26 109.07 346.86 87.89 335.48 0 288.22 0 217.55 87.89 264.81 109.07 276.19 119.01 281.52 119.01 243.48 87.89 226.7 0 179.51 0 108.77 87.89 156.03 119.01 172.74 129.6 178.5 150.13 189.52"/>
      <polygon class="cls-1" points="87.89 373.52 87.89 444.26 0 397 0 326.33 87.89 373.52"/>
    </g>
  </g>
</svg>