<?xml version="1.0" encoding="UTF-8"?>
<svg id="_Слой_2" data-name="Слой 2" xmlns="http://www.w3.org/2000/svg" viewBox="0 0 729.35 167.5">
  <defs>
    <style>
      .cls-1 {
        fill: #f2c56d;
        fill-rule: evenodd;
      }

      .cls-2 {
        fill: #fff;
      }
    </style>
  </defs>
  <g id="_Слой_1-2" data-name="Слой 1">
    <g>
      <g>
        <polygon class="cls-1" points="30.82 16.58 52.65 28.32 52.65 53.12 30.82 41.36 .01 24.8 .01 0 30.82 16.58"/>
        <polygon class="cls-1" points="116.14 .03 116.14 24.83 85.36 41.36 74.45 47.22 63.53 53.12 63.53 28.32 116.14 .03"/>
        <polygon class="cls-1" points="74.46 85.36 74.46 98.7 77.94 96.83 85.37 92.84 116.16 76.3 116.16 101.07 85.37 117.62 77.94 121.61 74.46 123.5 74.46 161.62 63.55 167.5 63.55 66.45 70.75 62.58 74.46 60.56 85.37 54.7 116.16 38.16 116.16 62.96 85.37 79.48 74.46 85.36"/>
        <polygon class="cls-1" points="116.16 114.44 116.16 139.21 85.37 155.76 85.37 130.95 116.16 114.44"/>
        <polygon class="cls-1" points="52.64 66.45 52.64 167.48 41.73 161.62 41.73 123.5 38.24 121.61 30.81 117.62 0 101.05 0 76.27 30.81 92.84 38.24 96.83 41.73 98.7 41.73 85.36 30.81 79.48 0 62.94 0 38.13 30.81 54.7 41.73 60.56 45.44 62.58 52.64 66.45"/>
        <polygon class="cls-1" points="30.81 130.95 30.81 155.76 0 139.19 0 114.41 30.81 130.95"/>
      </g>
      <g>
        <polygon class="cls-2" points="171.18 110.85 179.75 110.85 179.75 84.78 202.98 84.78 202.98 79.58 179.75 79.58 179.75 62.52 206.8 62.52 206.8 56.65 171.18 56.65 171.18 110.85"/>
        <path class="cls-2" d="M233.9,56.65l-22.92,54.21h5.34l6.6-15.44h24.72l7.19,15.44h9.2l-25.24-54.21h-4.88ZM245.25,90.29h-20.16l9.64-22.57,10.52,22.57Z"/>
        <rect class="cls-2" x="277.89" y="56.65" width="8.57" height="54.21"/>
        <path class="cls-2" d="M347.3,64.34c-2.54-2.39-5.63-4.29-9.17-5.65-3.53-1.36-7.47-2.05-11.7-2.05h-18.11v54.21h19.01c3.84,0,7.51-.68,10.89-2.01,3.39-1.34,6.39-3.24,8.94-5.65,2.55-2.42,4.58-5.32,6.04-8.64,1.47-3.32,2.21-7.01,2.21-10.96s-.72-7.39-2.13-10.69c-1.42-3.3-3.43-6.18-5.97-8.57ZM316.89,61.7h7.35c3.55,0,6.73.61,9.44,1.8,2.71,1.19,5.01,2.82,6.84,4.84,1.83,2.03,3.25,4.41,4.2,7.05.96,2.66,1.44,5.48,1.44,8.36,0,2.59-.41,5.24-1.23,7.87-.81,2.6-2.11,4.98-3.87,7.08-1.76,2.09-4.03,3.82-6.77,5.13-2.73,1.31-6.11,1.98-10.05,1.98h-7.35v-44.11Z"/>
        <path class="cls-2" d="M382.5,56.65l-22.92,54.21h5.34l6.6-15.44h24.72l7.19,15.44h9.2l-25.24-54.21h-4.88ZM393.85,90.29h-20.16l9.64-22.57,10.52,22.57Z"/>
        <path class="cls-2" d="M461.53,67.09c1.75-1.99,3.93-3.55,6.47-4.64,2.55-1.1,5.57-1.65,8.98-1.65,2.27,0,4.42.24,6.39.72,1.97.48,3.75,1.11,5.29,1.88,1.51.75,2.75,1.62,3.71,2.57.91.91,1.51,1.83,1.76,2.73l.18.63h7.36l-.49-1.21c-.48-1.17-1.29-2.48-2.41-3.92-1.13-1.45-2.67-2.81-4.6-4.06-1.91-1.24-4.29-2.29-7.08-3.14-2.79-.84-6.12-1.27-9.88-1.27-4.32,0-8.36.62-12.01,1.84-3.66,1.23-6.88,3.03-9.55,5.34-2.68,2.32-4.8,5.21-6.3,8.59-1.49,3.37-2.25,7.23-2.25,11.48,0,3.63.58,7.19,1.74,10.59,1.16,3.42,2.96,6.52,5.35,9.22,2.4,2.71,5.5,4.9,9.2,6.51,3.7,1.62,8.16,2.44,13.26,2.44,3.82,0,7.26-.43,10.22-1.27,2.34-.66,4.38-1.39,6.09-2.18v2.55h8.12v-25.13h-16.51v4.82h8.39v12.21c-2.05,1.27-4.16,2.24-6.28,2.86-2.26.67-4.88,1.01-7.78,1.01-3.82,0-7.2-.58-10.03-1.73-2.82-1.15-5.19-2.75-7.04-4.77-1.86-2.02-3.27-4.46-4.21-7.25-.94-2.82-1.42-5.96-1.42-9.35s.45-6.46,1.34-9.25c.88-2.77,2.22-5.19,3.98-7.18Z"/>
        <path class="cls-2" d="M557.3,106.45c-1.17.11-2.27-.04-3.13-.36-.71-.26-1.38-.66-2-1.17-.64-.53-1.28-1.19-1.88-1.96-.64-.82-1.3-1.74-1.97-2.76-2.05-3-3.67-5.45-4.81-7.28-1.15-1.83-2.06-3.25-2.74-4.26-.7-1.05-1.27-1.79-1.74-2.29-.2-.21-.41-.4-.64-.58,1.6-.28,3.03-.75,4.29-1.41,1.81-.95,3.32-2.16,4.48-3.6,1.15-1.43,2-3,2.53-4.67.52-1.65.78-3.29.78-4.87,0-1.44-.28-3.02-.83-4.7-.56-1.71-1.53-3.32-2.89-4.78-1.35-1.46-3.2-2.69-5.51-3.66-2.3-.97-5.21-1.46-8.66-1.46h-17.89v54.21h8.57v-23.16h2.44c1.32,0,2.42.12,3.27.34.81.22,1.55.6,2.2,1.11.68.55,1.33,1.26,1.93,2.14.65.94,1.42,2.11,2.33,3.52l5.93,8.75c.74,1.15,1.49,2.23,2.23,3.2.76,1,1.59,1.87,2.49,2.59.91.73,1.95,1.32,3.11,1.75,1.16.43,2.56.65,4.16.65,1.13,0,2.07-.05,2.82-.16.8-.12,1.61-.4,2.41-.86l.44-.25v-4.35l-1.04.21c-.22.04-.44.08-.67.1ZM523.27,61.7h6.72c1.8,0,3.43.26,4.86.77,1.42.51,2.65,1.22,3.67,2.12,1,.88,1.77,1.95,2.29,3.17.53,1.23.8,2.61.8,4.08,0,1.23-.25,2.5-.73,3.77-.48,1.26-1.22,2.42-2.19,3.46-.97,1.03-2.18,1.89-3.6,2.54-1.41.64-3.07.97-4.94.97h-6.87v-20.88Z"/>
        <path class="cls-2" d="M616.95,65.41c-2.46-2.77-5.62-5.1-9.38-6.91-3.78-1.82-8.28-2.75-13.38-2.75s-9.48.91-13.13,2.71c-3.64,1.79-6.68,4.1-9.04,6.85-2.36,2.75-4.12,5.81-5.22,9.1-1.1,3.27-1.66,6.42-1.66,9.35s.56,5.99,1.66,9.23c1.1,3.26,2.86,6.32,5.22,9.09,2.37,2.78,5.41,5.11,9.04,6.92,3.65,1.83,8.07,2.75,13.13,2.75,3.42,0,6.57-.43,9.36-1.27,2.79-.84,5.34-2,7.56-3.44,2.23-1.44,4.2-3.12,5.84-5,1.64-1.87,3-3.87,4.06-5.95,1.05-2.07,1.85-4.18,2.39-6.28.54-2.11.81-4.15.81-6.06,0-2.88-.6-6-1.78-9.25-1.18-3.26-3.03-6.32-5.49-9.09ZM615.12,83.75c0,3.37-.56,6.5-1.66,9.31-1.11,2.81-2.62,5.25-4.51,7.25-1.89,2.01-4.11,3.59-6.61,4.71-5.03,2.26-11.15,2.22-15.95,0-2.42-1.12-4.56-2.7-6.34-4.7-1.79-2.01-3.22-4.45-4.25-7.25-1.03-2.81-1.56-5.95-1.56-9.33s.53-6.52,1.56-9.33c1.03-2.8,2.46-5.24,4.25-7.25,1.79-2,3.92-3.58,6.34-4.7,2.42-1.11,5.1-1.68,7.95-1.68s5.5.57,8,1.68c2.5,1.12,4.73,2.71,6.61,4.71,1.88,2,3.4,4.44,4.51,7.25,1.1,2.81,1.66,5.94,1.66,9.31Z"/>
        <path class="cls-2" d="M672.74,89.22c0,1.09-.03,2.18-.07,3.3-.05,1.06-.19,2.15-.43,3.22-.23,1.06-.6,2.12-1.1,3.15-.48,1.01-1.2,2.05-2.14,3.08-1.69,1.82-3.6,3.08-5.69,3.73-2.15.67-4.43,1.01-6.78,1.01-1.98,0-3.75-.31-5.26-.91-1.52-.61-2.98-1.54-4.36-2.77-1.08-.94-1.9-1.87-2.45-2.79-.56-.93-.99-1.86-1.26-2.77s-.44-1.83-.49-2.74c-.05-.99-.07-1.97-.07-2.95v-35.12h-8.57v33.1c0,2.09.21,4.42.61,6.92.42,2.59,1.43,5.04,3,7.26,1.58,2.24,3.93,4.12,7,5.6,3.05,1.48,7.24,2.22,12.45,2.22,3.29,0,6.26-.53,8.83-1.56,2.58-1.04,4.77-2.5,6.52-4.33,1.75-1.82,3.09-3.98,3.97-6.41.88-2.41,1.33-5.02,1.33-7.76v-35.05h-5.05v32.58Z"/>
        <path class="cls-2" d="M728.25,66.93c-.74-2.04-1.88-3.83-3.39-5.34-1.5-1.5-3.41-2.72-5.66-3.6-2.24-.89-4.9-1.34-7.89-1.34h-18.41v54.21h8.57v-21.64c1.01.24,2.08.44,3.19.61,1.53.23,3.24.35,5.08.35,3.14,0,5.96-.45,8.39-1.33,2.45-.89,4.53-2.12,6.18-3.67,1.66-1.55,2.93-3.37,3.77-5.4.84-2.02,1.27-4.22,1.27-6.52s-.37-4.32-1.1-6.33ZM701.47,61.7h6.99c1.96,0,3.7.35,5.17,1.04,1.48.69,2.72,1.61,3.68,2.74.97,1.14,1.71,2.43,2.2,3.84.49,1.42.74,2.85.74,4.25s-.23,2.73-.67,4.12c-.44,1.35-1.15,2.6-2.11,3.7-.96,1.1-2.2,2.01-3.68,2.71-1.48.69-3.29,1.04-5.4,1.04-1.52,0-2.93-.06-4.19-.18-.99-.09-1.9-.27-2.73-.54v-22.71Z"/>
      </g>
    </g>
  </g>
</svg>